<?xml version="1.0" standalone="no"?>
<!DOCTYPE svg PUBLIC "-//W3C//DTD SVG 1.1//EN" "http://www.w3.org/Graphics/SVG/1.1/DTD/svg11.dtd" >
<svg xmlns="http://www.w3.org/2000/svg">
<metadata>Generated by IcoMoon</metadata>
<defs>
<font id="icomoon" horiz-adv-x="1024">
<font-face units-per-em="1024" ascent="960" descent="-64" />
<missing-glyph horiz-adv-x="1024" />
<glyph unicode="&#x20;" horiz-adv-x="512" d="" />
<glyph unicode="&#xe900;" glyph-name="plus" d="M992 576h-352v352c0 17.672-14.328 32-32 32h-192c-17.672 0-32-14.328-32-32v-352h-352c-17.672 0-32-14.328-32-32v-192c0-17.672 14.328-32 32-32h352v-352c0-17.672 14.328-32 32-32h192c17.672 0 32 14.328 32 32v352h352c17.672 0 32 14.328 32 32v192c0 17.672-14.328 32-32 32z" />
<glyph unicode="&#xe901;" glyph-name="minus" d="M0 544v-192c0-17.672 14.328-32 32-32h960c17.672 0 32 14.328 32 32v192c0 17.672-14.328 32-32 32h-960c-17.672 0-32-14.328-32-32z" />
<glyph unicode="&#xe902;" glyph-name="cross" d="M1014.662 137.34c-0.004 0.004-0.008 0.008-0.012 0.010l-310.644 310.65 310.644 310.65c0.004 0.004 0.008 0.006 0.012 0.010 3.344 3.346 5.762 7.254 7.312 11.416 4.246 11.376 1.824 24.682-7.324 33.83l-146.746 146.746c-9.148 9.146-22.45 11.566-33.828 7.32-4.16-1.55-8.070-3.968-11.418-7.31 0-0.004-0.004-0.006-0.008-0.010l-310.648-310.652-310.648 310.65c-0.004 0.004-0.006 0.006-0.010 0.010-3.346 3.342-7.254 5.76-11.414 7.31-11.38 4.248-24.682 1.826-33.83-7.32l-146.748-146.748c-9.148-9.148-11.568-22.452-7.322-33.828 1.552-4.16 3.97-8.072 7.312-11.416 0.004-0.002 0.006-0.006 0.010-0.010l310.65-310.648-310.65-310.652c-0.002-0.004-0.006-0.006-0.008-0.010-3.342-3.346-5.76-7.254-7.314-11.414-4.248-11.376-1.826-24.682 7.322-33.83l146.748-146.746c9.15-9.148 22.452-11.568 33.83-7.322 4.16 1.552 8.070 3.97 11.416 7.312 0.002 0.004 0.006 0.006 0.010 0.010l310.648 310.65 310.648-310.65c0.004-0.002 0.008-0.006 0.012-0.008 3.348-3.344 7.254-5.762 11.414-7.314 11.378-4.246 24.684-1.826 33.828 7.322l146.746 146.748c9.148 9.148 11.57 22.454 7.324 33.83-1.552 4.16-3.97 8.068-7.314 11.414z" />
<glyph unicode="&#xe903;" glyph-name="checkmark" d="M864 832l-480-480-224 224-160-160 384-384 640 640z" />
<glyph unicode="&#xe904;" glyph-name="arrow-right2" d="M621.254 82.746l320 320c24.994 24.992 24.994 65.516 0 90.51l-320 320c-24.994 24.992-65.516 24.992-90.51 0-24.994-24.994-24.994-65.516 0-90.51l210.746-210.746h-613.49c-35.346 0-64-28.654-64-64s28.654-64 64-64h613.49l-210.746-210.746c-12.496-12.496-18.744-28.876-18.744-45.254s6.248-32.758 18.744-45.254c24.994-24.994 65.516-24.994 90.51 0z" />
<glyph unicode="&#xe905;" glyph-name="arrow-left2" d="M402.746 82.746l-320 320c-24.994 24.992-24.994 65.516 0 90.51l320 320c24.994 24.992 65.516 24.992 90.51 0 24.994-24.994 24.994-65.516 0-90.51l-210.746-210.746h613.49c35.346 0 64-28.654 64-64s-28.654-64-64-64h-613.49l210.746-210.746c12.496-12.496 18.744-28.876 18.744-45.254s-6.248-32.758-18.744-45.254c-24.994-24.994-65.516-24.994-90.51 0z" />
<glyph unicode="&#xe906;" glyph-name="google-plus" d="M325.8 502.6v-111.8h184.8c-7.4-48-55.8-140.6-184.8-140.6-111.2 0-202 92.2-202 205.8s90.8 205.8 202 205.8c63.4 0 105.6-27 129.8-50.2l88.4 85.2c-56.8 53-130.4 85.2-218.2 85.2-180.2-0.2-325.8-145.8-325.8-326s145.6-325.8 325.8-325.8c188 0 312.8 132.2 312.8 318.4 0 21.4-2.4 37.8-5.2 54h-307.6zM1024 512h-96v96h-96v-96h-96v-96h96v-96h96v96h96z" />
<glyph unicode="&#xe907;" glyph-name="facebook" d="M608 768h160v192h-160c-123.514 0-224-100.486-224-224v-96h-128v-192h128v-512h192v512h160l32 192h-192v96c0 17.346 14.654 32 32 32z" />
<glyph unicode="&#xe908;" glyph-name="twitter" d="M1024 733.6c-37.6-16.8-78.2-28-120.6-33 43.4 26 76.6 67.2 92.4 116.2-40.6-24-85.6-41.6-133.4-51-38.4 40.8-93 66.2-153.4 66.2-116 0-210-94-210-210 0-16.4 1.8-32.4 5.4-47.8-174.6 8.8-329.4 92.4-433 219.6-18-31-28.4-67.2-28.4-105.6 0-72.8 37-137.2 93.4-174.8-34.4 1-66.8 10.6-95.2 26.2 0-0.8 0-1.8 0-2.6 0-101.8 72.4-186.8 168.6-206-17.6-4.8-36.2-7.4-55.4-7.4-13.6 0-26.6 1.4-39.6 3.8 26.8-83.4 104.4-144.2 196.2-146-72-56.4-162.4-90-261-90-17 0-33.6 1-50.2 3 93.2-59.8 203.6-94.4 322.2-94.4 386.4 0 597.8 320.2 597.8 597.8 0 9.2-0.2 18.2-0.6 27.2 41 29.4 76.6 66.4 104.8 108.6z" />
<glyph unicode="&#xe909;" glyph-name="mail" horiz-adv-x="1526" d="M1526.154-64h-1526.154v1024h1526.154v-1024zM118.154 54.154h1289.846v787.692h-1289.846v-787.692zM768 132.923l-748.308 728.615 78.769 78.769 669.538-649.846 659.692 649.846 78.769-78.769zM971.695 403.769l82.129 84.941 460.096-444.864-82.129-84.941-460.096 444.864zM20.817 52.214l460.032 444.928 82.141-84.929-460.032-444.928-82.141 84.929z" />
<glyph unicode="&#xe90a;" glyph-name="info" d="M512 878.080c238.933 0 430.080-191.147 430.080-430.080s-191.147-430.080-430.080-430.080-430.080 191.147-430.080 430.080 191.147 430.080 430.080 430.080zM512 960c-279.893 0-512-232.107-512-512s232.107-512 512-512 512 232.107 512 512-225.28 512-512 512v0zM491.52 161.28c-68.267 0-95.573 34.133-81.92 109.227l54.613 245.76c0 27.307 6.827 40.96 13.653 47.787s20.48 13.653 34.133 13.653h13.653c20.48 0 34.133-6.827 40.96-13.653s13.653-20.48 6.827-40.96l-54.613-252.587c-6.827-20.48-6.827-40.96 0-47.787s13.653-13.653 34.133-20.48c0 0 0 0 0-6.827 0 0 0-6.827-6.827-13.653 0-6.827-6.827-6.827-13.653-13.653s-13.653-6.827-20.48-6.827-13.653 0-20.48 0zM559.787 639.147c-20.48 0-34.133 6.827-47.787 13.653s-20.48 20.48-20.48 34.133c0 20.48 6.827 34.133 20.48 47.787s27.307 20.48 47.787 20.48c20.48 0 34.133 0 47.787-13.653 13.653-6.827 20.48-20.48 20.48-34.133 0-20.48-6.827-34.133-20.48-47.787s-34.133-20.48-47.787-20.48z" />
<glyph unicode="&#xe90b;" glyph-name="arrow_down" d="M512 960c282.624 0 512-229.376 512-512s-229.376-512-512-512-512 229.376-512 512 229.376 512 512 512zM512 19.968c237.568 0 430.080 192.512 430.080 430.080s-192.512 430.080-430.080 430.080-430.080-192.512-430.080-430.080 192.512-430.080 430.080-430.080zM555.008 587.264l-4.096-184.32 71.68 90.112c14.336 18.432 34.816 30.72 57.344 30.72 34.816 0 59.392-34.816 53.248-67.584l-208.896-206.848c-12.288-12.288-28.672-12.288-38.912 0l-210.944 206.848c-4.096 32.768 22.528 67.584 57.344 67.584 22.528 0 40.96-12.288 53.248-30.72l73.728-90.112-4.096 184.32v69.632c0 8.192 4.096 12.288 12.288 12.288h75.776c8.192 0 14.336-4.096 12.288-12.288 0 0 0-69.632 0-69.632z" />
<glyph unicode="&#xe90c;" glyph-name="arrow_left" d="M1024 448c0-279.893-232.107-512-512-512s-512 232.107-512 512 232.107 512 512 512 512-232.107 512-512zM81.92 448c0-238.933 191.147-430.080 430.080-430.080s430.080 191.147 430.080 430.080c0 238.933-191.147 430.080-430.080 430.080s-430.080-191.147-430.080-430.080zM648.533 407.040h-184.32l88.747-68.267c20.48-13.653 34.133-40.96 34.133-61.44 0-34.133-34.133-61.44-68.267-54.613l-204.8 211.627c-13.653 13.653-13.653 27.307 0 40.96l204.8 211.627c34.133 6.827 68.267-20.48 68.267-54.613 0-20.48-13.653-40.96-34.133-54.613l-88.747-75.093 184.32 6.827h68.267c6.827 0 13.653-6.827 13.653-13.653v-75.093c0-6.827-6.827-13.653-13.653-13.653h-68.267z" />
<glyph unicode="&#xe90d;" glyph-name="arrow_right" d="M0 448c0 279.893 232.107 512 512 512s512-232.107 512-512-232.107-512-512-512c-279.893 0-512 232.107-512 512zM942.080 448c0 238.933-191.147 430.080-430.080 430.080s-430.080-191.147-430.080-430.080c0-238.933 191.147-430.080 430.080-430.080s430.080 191.147 430.080 430.080zM375.467 488.96l184.32-6.827-88.747 68.267c-20.48 20.48-34.133 47.787-34.133 68.267 0 34.133 34.133 61.44 68.267 54.613l211.627-211.627c13.653-13.653 13.653-27.307 0-40.96l-204.8-211.627c-34.133-6.827-68.267 20.48-68.267 54.613 0 20.48 13.653 40.96 34.133 54.613l88.747 75.093h-259.413c-6.827 0-13.653 6.827-13.653 13.653v68.267c0 6.827 6.827 13.653 13.653 13.653h68.267z" />
<glyph unicode="&#xe90e;" glyph-name="arrow_up" d="M512-64c-279.893 0-512 232.107-512 512s232.107 512 512 512 512-232.107 512-512-232.107-512-512-512zM512 878.080c-238.933 0-430.080-191.147-430.080-430.080s191.147-430.080 430.080-430.080c238.933 0 430.080 191.147 430.080 430.080s-191.147 430.080-430.080 430.080zM471.040 311.467l6.827 184.32-68.267-88.747c-20.48-20.48-47.787-34.133-68.267-34.133-34.133 0-61.44 34.133-54.613 68.267l211.627 211.627c13.653 13.653 27.307 13.653 40.96 0l211.627-204.8c6.827-34.133-20.48-68.267-54.613-68.267-20.48 0-40.96 13.653-54.613 34.133l-75.093 81.92 6.827-184.32v-68.267c0-6.827-6.827-13.653-13.653-13.653h-75.093c-6.827 0-13.653 6.827-13.653 13.653v68.267z" />
<glyph unicode="&#xe90f;" glyph-name="calc" horiz-adv-x="852" d="M735.356 877.53c20.617 0 34.362-13.745 34.362-34.362v-790.336c0-20.617-13.745-34.362-34.362-34.362h-618.523c-20.617 0-34.362 13.745-34.362 34.362v790.336c0 20.617 13.745 34.362 34.362 34.362h618.523zM735.356 960h-618.523c-61.852 0-116.832-54.98-116.832-116.832v-790.336c0-61.852 54.98-116.832 116.832-116.832h618.523c61.852 0 116.832 54.98 116.832 116.832v790.336c0 61.852-54.98 116.832-116.832 116.832v0zM343.624 259.007c-13.745 13.745-34.362 13.745-41.235 0l-27.49-27.49-27.49 27.49c-20.617 13.745-41.235 13.745-54.98 0s-13.745-34.362 0-41.235l27.49-27.49-27.49-27.49c-13.745-13.745-13.745-34.362 0-41.235 6.872-6.872 13.745-6.872 20.617-6.872s13.745 0 20.617 6.872l27.49 27.49 27.49-27.49c6.872-6.872 13.745-6.872 20.617-6.872s13.745 0 20.617 6.872c13.745 13.745 13.745 34.362 0 41.235l-27.49 27.49 41.235 27.49c13.745 6.872 13.745 27.49 0 41.235zM343.624 451.436h-41.235v41.235c0 20.617-13.745 34.362-34.362 34.362s-34.362-13.745-34.362-34.362v-41.235h-41.235c-20.617 0-34.362-13.745-34.362-34.362s13.745-34.362 34.362-34.362h41.235v-41.235c0-20.617 13.745-34.362 34.362-34.362s34.362 13.745 34.362 34.362v48.107h41.235c20.617 0 34.362 13.745 34.362 34.362s-20.617 27.49-34.362 27.49zM646.013 451.436h-123.705c-20.617 0-34.362-13.745-34.362-34.362s13.745-34.362 34.362-34.362h116.832c20.617 0 34.362 13.745 34.362 34.362s-13.745 34.362-27.49 34.362zM646.013 265.879h-123.705c-20.617 0-34.362-13.745-34.362-34.362s13.745-34.362 34.362-34.362h116.832c20.617 0 34.362 13.745 34.362 34.362s-13.745 34.362-27.49 34.362zM646.013 162.792h-123.705c-20.617 0-34.362-13.745-34.362-34.362s13.745-34.362 34.362-34.362h116.832c20.617 0 34.362 13.745 34.362 34.362s-13.745 34.362-27.49 34.362zM137.45 815.678h577.289v-185.557h-577.289v185.557z" />
<glyph unicode="&#xe910;" glyph-name="call_centre" horiz-adv-x="985" d="M492.308 684.308c118.154 0 210.051-98.462 210.051-210.051 0-118.154-98.462-210.051-210.051-210.051-118.154 0-210.051 98.462-210.051 210.051-6.564 111.59 91.897 210.051 210.051 210.051zM492.308 763.077c-164.103 0-295.385-131.282-295.385-295.385s131.282-288.821 288.821-288.821 288.821 131.282 288.821 288.821-124.718 295.385-282.256 295.385v0zM984.615 467.692c0 269.128-223.179 492.308-492.308 492.308s-492.308-223.179-492.308-492.308v0c0-19.692 19.692-39.385 39.385-39.385s39.385 19.692 39.385 39.385c0 0 0 0 0 0 0 229.744 183.795 413.538 413.538 413.538s413.538-183.795 413.538-413.538c0-190.359-131.282-347.897-301.949-400.41-13.128 19.692-32.821 39.385-52.513 39.385h-118.154c-32.821 0-59.077-26.256-59.077-59.077v-59.077c0-32.821 26.256-59.077 59.077-59.077h118.154c32.821 0 59.077 26.256 59.077 59.077v0c210.051 52.513 374.154 249.436 374.154 479.179z" />
<glyph unicode="&#xe911;" glyph-name="credit" horiz-adv-x="1513" d="M1159.929 144.425h108.743c27.186 0 54.372 27.186 54.372 54.372v0c0 27.186-27.186 54.372-54.372 54.372h-108.743c-27.186 0-54.372-27.186-54.372-54.372v0c0-27.186 27.186-54.372 54.372-54.372zM761.204 144.425h-561.841c-9.062 0-27.186 9.062-27.186 27.186s9.062 27.186 27.186 27.186h561.841c18.124 0 27.186-9.062 27.186-27.186s-18.124-27.186-27.186-27.186zM498.407 244.106h-299.044c-18.124 0-27.186 9.062-27.186 27.186s9.062 27.186 27.186 27.186h299.044c18.124 0 27.186-9.062 27.186-27.186s-9.062-27.186-27.186-27.186zM1377.416-64h-1241.487c-72.496 0-135.929 54.372-135.929 126.867v761.204c0 72.496 63.434 135.929 135.929 135.929h1250.549c72.496 0 135.929-63.434 135.929-135.929v-761.204c-9.062-72.496-72.496-126.867-144.991-126.867zM135.929 851.257c-9.062 0-27.186-9.062-27.186-27.186v-761.204c0-9.062 9.062-27.186 27.186-27.186h1250.549c9.062 0 27.186 9.062 27.186 27.186v761.204c0 9.062-9.062 27.186-27.186 27.186h-1250.549zM54.372 679.080h1404.602v-217.487h-1404.602v217.487z" />
<glyph unicode="&#xe912;" glyph-name="cross2" d="M512-64c-279.893 0-512 232.107-512 512s232.107 512 512 512 512-232.107 512-512-232.107-512-512-512zM512 878.080c-238.933 0-430.080-191.147-430.080-430.080s191.147-430.080 430.080-430.080c238.933 0 430.080 191.147 430.080 430.080s-191.147 430.080-430.080 430.080zM389.12 304.64v0c-20.48 20.48-20.48 40.96 0 68.267l68.267 68.267-68.267 68.267c-20.48 20.48-20.48 40.96-6.827 61.44l6.827 6.827c13.653 13.653 34.133 20.48 61.44-6.827l68.267-68.267 68.267 68.267c27.307 20.48 47.787 20.48 61.44 6.827l6.827-6.827c13.653-13.653 20.48-34.133-6.827-61.44l-68.267-68.267 75.093-75.093c20.48-20.48 20.48-40.96 0-54.613l-6.827-6.827c-13.653-20.48-34.133-20.48-54.613 0l-75.093 75.093-68.267-68.267c-27.307-20.48-47.787-20.48-61.44-6.827z" />
<glyph unicode="&#xe913;" glyph-name="direct_debit" horiz-adv-x="1125" d="M563.406 162.185c-310.49 0-563.406 178.892-563.406 398.908s252.916 398.908 563.406 398.908c310.49 0 563.406-178.892 563.406-398.908s-254.972-398.908-563.406-398.908zM563.406 877.751c-265.253 0-481.157-141.88-481.157-316.659s215.904-316.659 481.157-316.659c265.253 0 481.157 141.88 481.157 316.659-2.056 174.779-217.96 316.659-481.157 316.659zM602.474 281.446c152.161 0 273.478 127.486 273.478 281.703s-123.373 281.703-273.478 281.703v-563.406zM24.675-37.269v88.418c0 14.394 8.225 22.618 20.562 22.618h34.956c43.181 0 69.912-24.675 69.912-65.799s-26.731-67.855-71.968-67.855h-30.843c-12.337 0-22.618 10.281-22.618 22.618zM78.137-24.932c18.506 0 30.843 12.337 30.843 32.9s-12.337 30.843-30.843 30.843h-12.337v-63.743h12.337zM158.329 71.711c0 10.281 8.225 18.506 20.562 18.506s20.562-6.169 20.562-18.506c0-12.337-8.225-18.506-20.562-18.506s-20.562 6.169-20.562 18.506zM160.386-41.382v65.799c0 14.394 8.225 18.506 18.506 18.506h4.112c10.281 0 18.506-4.112 18.506-18.506v-65.799c0-14.394-6.169-18.506-16.45-18.506h-6.169c-10.281-2.056-18.506 2.056-18.506 18.506zM250.859 24.418c4.112 12.337 12.337 18.506 24.675 18.506s20.562-8.225 20.562-20.562c0-16.45-12.337-20.562-12.337-20.562-4.112 2.056-8.225 6.169-14.394 6.169-12.337 0-16.45-8.225-16.45-24.675v-24.675c0-14.394-8.225-18.506-16.45-18.506h-4.112c-10.281 0-18.506 4.112-18.506 18.506v80.193c0 2.056 6.169 4.112 14.394 4.112s18.506-4.112 22.618-18.506zM296.096-10.538c0 30.843 22.618 53.462 53.462 53.462s53.462-20.562 53.462-51.406v-2.056c0-6.169-2.056-10.281-8.225-10.281h-63.743c2.056-10.281 10.281-16.45 22.618-16.45s20.562 6.169 24.675 12.337c0 0 18.506-2.056 18.506-16.45s-16.45-24.675-45.237-24.675c-32.9 2.056-55.518 22.618-55.518 55.518zM331.052-0.257h37.012c0 10.281-6.169 16.45-18.506 16.45-10.281 2.056-18.506-6.169-18.506-16.45zM405.076-10.538c0 30.843 22.618 53.462 53.462 53.462 32.9 0 43.181-16.45 43.181-26.731 0-16.45-20.562-18.506-20.562-16.45-2.056 8.225-8.225 12.337-20.562 12.337s-20.562-10.281-20.562-22.618c0-12.337 8.225-22.618 20.562-22.618 10.281 0 16.45 6.169 20.562 14.394 0 2.056 20.562 0 20.562-16.45 0-10.281-12.337-26.731-43.181-26.731-30.843-2.056-53.462 20.562-53.462 51.406zM501.719 24.418v2.056c0 10.281 6.169 14.394 16.45 14.394h2.056v10.281c0 12.337 6.169 18.506 18.506 18.506h4.112c10.281 0 18.506-4.112 18.506-18.506v-10.281h12.337c10.281 0 14.394-4.112 14.394-12.337v-2.056c0-8.225-6.169-14.394-16.45-14.394h-12.337v-34.956c0-6.169 2.056-10.281 8.225-10.281s8.225 2.056 10.281 6.169c0 0 8.225-4.112 8.225-14.394 0-12.337-12.337-22.618-30.843-22.618-24.675 0-34.956 12.337-34.956 37.012v39.068h-2.056c-10.281 0-16.45 4.112-16.45 12.337zM623.036-37.269v88.418c0 14.394 8.225 22.618 20.562 22.618h34.956c43.181 0 69.912-24.675 69.912-65.799s-26.731-67.855-71.968-67.855h-32.9c-10.281 0-20.562 10.281-20.562 22.618zM676.498-24.932c18.506 0 30.843 12.337 30.843 32.9s-12.337 30.843-30.843 30.843h-14.394v-63.743h14.394zM752.578-10.538c0 30.843 22.618 53.462 53.462 53.462s53.462-20.562 53.462-51.406v-2.056c0-6.169-2.056-10.281-8.225-10.281h-63.743c2.056-10.281 10.281-16.45 22.618-16.45s20.562 6.169 24.675 12.337c0 0 18.506-2.056 18.506-16.45s-16.45-24.675-45.237-24.675c-32.9 2.056-55.518 22.618-55.518 55.518zM787.534-0.257h37.012c0 10.281-6.169 16.45-18.506 16.45-10.281 2.056-18.506-6.169-18.506-16.45zM906.795-45.494c0-12.337-8.225-16.45-16.45-16.45h-6.169c-10.281 0-18.506 4.112-18.506 18.506v121.317c0 2.056 6.169 4.112 14.394 4.112 10.281 0 24.675-6.169 24.675-30.843v-24.675c6.169 8.225 16.45 14.394 28.787 14.394 28.787 0 47.293-20.562 47.293-53.462 0-30.843-18.506-53.462-47.293-53.462-12.337 2.056-22.618 10.281-26.731 20.562zM945.863-10.538c0 14.394-8.225 22.618-20.562 22.618-8.225 0-16.45-4.112-18.506-12.337v-16.45c0-10.281 8.225-18.506 18.506-18.506 12.337 2.056 20.562 12.337 20.562 24.675zM989.044 71.711c0 10.281 8.225 18.506 20.562 18.506s20.562-6.169 20.562-18.506c0-12.337-8.225-18.506-20.562-18.506s-20.562 6.169-20.562 18.506zM991.1-41.382v65.799c0 14.394 8.225 18.506 18.506 18.506h4.112c10.281 0 18.506-4.112 18.506-18.506v-65.799c0-14.394-6.169-18.506-16.45-18.506h-4.112c-14.394-2.056-20.562 2.056-20.562 18.506zM1036.337 24.418v2.056c0 10.281 6.169 14.394 16.45 14.394h2.056v10.281c0 12.337 6.169 18.506 18.506 18.506h4.112c10.281 0 18.506-4.112 18.506-18.506v-10.281h12.337c10.281 0 14.394-4.112 14.394-12.337v-2.056c0-8.225-6.169-14.394-16.45-14.394h-12.337v-34.956c0-6.169 2.056-10.281 8.225-10.281s8.225 2.056 10.281 6.169c0 0 8.225-4.112 8.225-14.394 0-12.337-12.337-22.618-30.843-22.618-24.675 0-34.956 12.337-34.956 37.012v39.068h-2.056c-12.337 0-16.45 4.112-16.45 12.337zM639.486 281.446c-217.96 0-394.795 78.137-394.795 174.779s174.779 174.779 394.795 174.779c-139.823 0-250.859-78.137-250.859-174.779s111.036-174.779 250.859-174.779z" />
<glyph unicode="&#xe914;" glyph-name="download" horiz-adv-x="1073" d="M629.205 811.952l-12.337-333.108 123.373 160.386c24.675 37.012 61.687 61.687 111.036 61.687 61.687 0 111.036-61.687 98.699-123.373l-382.458-382.458c-24.675-24.675-49.349-24.675-74.024 0l-370.12 382.458c-12.337 61.687 37.012 123.373 98.699 123.373 37.012 0 74.024-24.675 98.699-61.687l135.711-160.386-12.337 333.108v123.373c0 12.337 12.337 24.675 24.675 24.675h135.711c12.337 0 24.675-12.337 24.675-24.675v-123.373zM999.325-64h-925.301c-37.012 0-74.024 37.012-74.024 74.024s37.012 74.024 74.024 74.024h925.301c37.012 0 74.024-37.012 74.024-74.024s-37.012-74.024-74.024-74.024z" />
<glyph unicode="&#xe915;" glyph-name="electricity" d="M921.6-64h-819.2c-54.613 0-102.4 47.787-102.4 102.4v819.2c0 54.613 47.787 102.4 102.4 102.4h826.027c47.787 0 95.573-47.787 95.573-102.4v-826.027c0-47.787-47.787-95.573-102.4-95.573zM102.4 878.080c-6.827 0-20.48-6.827-20.48-20.48v-826.027c0-6.827 6.827-20.48 20.48-20.48h826.027c6.827 0 20.48 6.827 20.48 20.48v826.027c0 6.827-6.827 20.48-20.48 20.48h-826.027zM525.653 461.653c-20.48 0-40.96 20.48-40.96 40.96v163.84c0 20.48 20.48 40.96 40.96 40.96s40.96-20.48 40.96-40.96v-163.84c0-20.48-20.48-40.96-40.96-40.96zM791.893 236.373h-163.84c-20.48 0-40.96 20.48-40.96 40.96s20.48 40.96 40.96 40.96h163.84c20.48 0 40.96-20.48 40.96-40.96s-20.48-40.96-40.96-40.96zM416.427 236.373h-163.84c-20.48 0-40.96 20.48-40.96 40.96s20.48 40.96 40.96 40.96h163.84c20.48 0 40.96-20.48 40.96-40.96s-13.653-40.96-40.96-40.96z" />
<glyph unicode="&#xe916;" glyph-name="exclamation" d="M512-64c-279.893 0-512 232.107-512 512s232.107 512 512 512 512-232.107 512-512-232.107-512-512-512zM512 878.080c-238.933 0-430.080-191.147-430.080-430.080s191.147-430.080 430.080-430.080c238.933 0 430.080 191.147 430.080 430.080s-191.147 430.080-430.080 430.080zM477.867 372.907l-34.133 245.76c-6.827 40.96 13.653 68.267 54.613 68.267h20.48c40.96 0 61.44-27.307 54.613-68.267l-27.307-245.76c-6.827-20.48-13.653-34.133-27.307-34.133h-13.653c-13.653 0-20.48 13.653-27.307 34.133zM450.56 229.547v13.653c0 34.133 20.48 54.613 54.613 54.613h13.653c34.133 0 54.613-20.48 54.613-54.613v-13.653c0-34.133-13.653-47.787-54.613-47.787h-13.653c-34.133-6.827-54.613 13.653-54.613 47.787z" />
<glyph unicode="&#xe917;" glyph-name="gas" horiz-adv-x="680" d="M343.535-64c-191.587 0-343.535 151.948-343.535 343.535 0 59.458 13.213 118.916 46.245 171.768l297.29 508.697 297.29-515.303c33.032-52.852 46.245-112.31 46.245-171.768-6.606-184.981-158.555-336.929-343.535-336.929zM343.535 801.445l-224.619-396.387c-19.819-39.639-33.032-85.884-33.032-132.129 0-145.342 118.916-264.258 264.258-264.258s264.258 118.916 264.258 264.258c0 46.245-13.213 92.49-33.032 132.129l-237.832 396.387zM343.535 107.768c-85.884 0-158.555 72.671-158.555 158.555 0 26.426 6.606 59.458 19.819 79.277l138.735 244.439 138.735-244.439c13.213-26.426 19.819-52.852 19.819-79.277 0-85.884-72.671-158.555-158.555-158.555zM343.535 471.123l-92.49-151.948c-6.606-13.213-13.213-33.032-13.213-52.852 0-59.458 46.245-99.097 99.097-99.097 59.458 0 99.097 46.245 99.097 99.097 0 19.819-6.606 33.032-13.213 52.852l-79.277 151.948z" />
<glyph unicode="&#xe918;" glyph-name="heart_outline" horiz-adv-x="1213" d="M843.294 856.739c43.025 0 94.655-8.605 137.681-43.025 120.471-77.445 163.496-249.546 86.050-378.622-68.84-129.076-464.672-378.622-464.672-378.622s-387.227 249.546-464.672 378.622c-77.445 129.076-34.42 301.176 86.050 378.622 43.025 25.815 86.050 43.025 137.681 43.025 86.050 0 172.101-51.63 223.731-137.681 8.605-8.605 17.21-25.815 17.21-43.025 8.605 17.21 8.605 34.42 17.21 43.025 51.63 86.050 137.681 137.681 223.731 137.681zM843.294 960c-86.050 0-172.101-34.42-240.941-94.655-60.235 60.235-146.286 94.655-240.941 94.655-60.235 0-129.076-17.21-189.311-51.63-172.101-103.261-223.731-335.597-120.471-516.303 86.050-146.286 430.252-370.017 499.092-421.647l51.63-34.42 51.63 34.42c68.84 43.025 413.042 275.361 499.092 421.647 103.261 180.706 43.025 413.042-120.471 516.303-51.63 34.42-120.471 51.63-189.311 51.63v0z" />
<glyph unicode="&#xe919;" glyph-name="home" d="M1024 448c0-279.893-232.107-512-512-512s-512 232.107-512 512 232.107 512 512 512 512-232.107 512-512zM81.92 448c0-238.933 191.147-430.080 430.080-430.080s430.080 191.147 430.080 430.080c0 238.933-191.147 430.080-430.080 430.080s-430.080-191.147-430.080-430.080zM669.013 570.88v129.707h-81.92v-61.44l-75.093 61.44-245.76-204.8v-286.72h491.52v286.72l-88.747 75.093zM675.84 290.987h-122.88v81.92h-81.92v-81.92h-122.88v163.84l163.84 136.533 163.84-136.533v-163.84z" />
<glyph unicode="&#xe91a;" glyph-name="home_dual" d="M505.173 850.773l436.907-361.813v-471.040h-860.16v471.040l423.253 361.813zM505.173 960l-505.173-430.080v-593.92h1024v593.92l-518.827 430.080zM826.027 86.187h-300.373c-20.48 0-34.133 13.653-34.133 34.133v300.373c0 20.48 13.653 34.133 34.133 34.133h300.373c20.48 0 34.133-13.653 34.133-34.133v-300.373c0-13.653-13.653-34.133-34.133-34.133zM525.653 427.52c0 0-6.827 0 0 0l-6.827-300.373c0 0 0-6.827 6.827-6.827h300.373c0 0 6.827 0 6.827 6.827v293.547c0 0 0 6.827-6.827 6.827h-300.373zM682.667 277.333c-6.827 0-13.653 6.827-13.653 13.653v61.44c0 6.827 6.827 13.653 13.653 13.653s13.653-6.827 13.653-13.653v-61.44c0-6.827-6.827-13.653-13.653-13.653zM778.24 195.413h-61.44c-6.827 0-13.653 6.827-13.653 13.653s6.827 13.653 13.653 13.653h61.44c6.827 0 13.653-6.827 13.653-13.653s-6.827-13.653-13.653-13.653zM641.707 195.413h-61.44c-6.827 0-13.653 6.827-13.653 13.653s6.827 13.653 13.653 13.653h61.44c6.827 0 13.653-6.827 13.653-13.653s-6.827-13.653-13.653-13.653zM279.893 79.36c-68.267 0-129.707 54.613-129.707 129.707 0 20.48 6.827 40.96 20.48 61.44l109.227 191.147 109.227-191.147c13.653-20.48 13.653-40.96 13.653-61.44 0-68.267-54.613-129.707-122.88-129.707zM279.893 407.040l-81.92-143.36c-6.827-13.653-13.653-34.133-13.653-47.787 0-54.613 40.96-95.573 95.573-95.573s95.573 40.96 95.573 95.573c0 20.48-6.827 34.133-13.653 47.787l-81.92 143.36zM279.893 147.627c-34.133 0-61.44 27.307-61.44 61.44 0 13.653 0 20.48 6.827 27.307l54.613 88.747 54.613-88.747c0-6.827 6.827-20.48 6.827-27.307 0-34.133-27.307-61.44-61.44-61.44zM279.893 284.16l-34.133-54.613c0-6.827-6.827-13.653-6.827-20.48 0-20.48 13.653-40.96 40.96-40.96 20.48 0 40.96 13.653 40.96 40.96 0 6.827 0 13.653-6.827 20.48l-34.133 54.613z" />
<glyph unicode="&#xe91b;" glyph-name="keycard" horiz-adv-x="1513" d="M761.204 144.425h-561.841c-9.062 0-27.186 9.062-27.186 27.186s9.062 27.186 27.186 27.186h561.841c18.124 0 27.186-9.062 27.186-27.186s-18.124-27.186-27.186-27.186zM498.407 244.106h-299.044c-18.124 0-27.186 9.062-27.186 27.186s9.062 27.186 27.186 27.186h299.044c18.124 0 27.186-9.062 27.186-27.186s-9.062-27.186-27.186-27.186zM1377.416-64h-1241.487c-72.496 0-135.929 54.372-135.929 126.867v761.204c0 72.496 63.434 135.929 135.929 135.929h1250.549c72.496 0 135.929-63.434 135.929-135.929v-761.204c-9.062-72.496-72.496-126.867-144.991-126.867zM135.929 851.257c-9.062 0-27.186-9.062-27.186-27.186v-761.204c0-9.062 9.062-27.186 27.186-27.186h1250.549c9.062 0 27.186 9.062 27.186 27.186v761.204c0 9.062-9.062 27.186-27.186 27.186h-1250.549zM1187.115 706.265c-99.681 63.434-208.425 81.558-271.858 36.248v0l-126.867-72.496c0 0-9.062 0-9.062-9.062s45.31-45.31 117.805-81.558c-18.124 27.186-27.186 63.434-27.186 90.619 45.31-9.062 99.681-18.124 154.053-36.248 126.867-45.31 217.487-99.681 208.425-117.805 0-27.186-108.743-9.062-235.611 27.186-36.248 9.062-72.496 27.186-99.681 36.248 27.186-45.31 72.496-90.619 126.867-126.867 117.805-81.558 253.735-81.558 299.044-9.062 54.372 72.496-9.062 190.301-135.929 262.796z" />
<glyph unicode="&#xe91c;" glyph-name="lightning" d="M512-64c-279.893 0-512 232.107-512 512s232.107 512 512 512c279.893 0 512-232.107 512-512s-232.107-512-512-512zM512 878.080c-238.933 0-430.080-191.147-430.080-430.080s191.147-430.080 430.080-430.080c238.933 0 430.080 191.147 430.080 430.080s-191.147 430.080-430.080 430.080zM703.147 482.133h-150.187l68.267 273.067-300.373-341.333h150.187l-68.267-273.067z" />
<glyph unicode="&#xe91d;" glyph-name="menu" d="M512-64c-279.893 0-512 232.107-512 512s232.107 512 512 512c279.893 0 512-232.107 512-512s-232.107-512-512-512zM512 878.080c-238.933 0-430.080-191.147-430.080-430.080s191.147-430.080 430.080-430.080c238.933 0 430.080 191.147 430.080 430.080s-191.147 430.080-430.080 430.080zM723.627 577.707h-430.080c-20.48 0-34.133 13.653-34.133 34.133s13.653 34.133 34.133 34.133h430.080c20.48 0 34.133-13.653 34.133-34.133s-13.653-34.133-34.133-34.133zM723.627 413.867h-430.080c-13.653 0-34.133 13.653-34.133 34.133s20.48 34.133 34.133 34.133h430.080c20.48 0 34.133-13.653 34.133-34.133s-13.653-34.133-34.133-34.133zM723.627 250.027h-430.080c-20.48 0-34.133 13.653-34.133 34.133s13.653 34.133 34.133 34.133h430.080c20.48 0 34.133-13.653 34.133-34.133s-13.653-34.133-34.133-34.133z" />
<glyph unicode="&#xe91e;" glyph-name="meter_act" d="M395.947 495.787h-40.96l-6.827-13.653c0-13.653-13.653-20.48-20.48-20.48-13.653 0-20.48 6.827-20.48 13.653l40.96 109.227c0 6.827 6.827 13.653 27.307 13.653s20.48-6.827 27.307-13.653l47.787-109.227c0-6.827-6.827-13.653-20.48-13.653s-20.48 6.827-27.307 20.48l-6.827 13.653zM361.813 523.093h27.307l-13.653 40.96-13.653-40.96zM450.56 529.92c0 40.96 27.307 68.267 68.267 68.267 34.133 0 54.613-20.48 54.613-34.133s-27.307-13.653-27.307-13.653c0 6.827-13.653 13.653-20.48 13.653-20.48 0-34.133-13.653-34.133-34.133s13.653-34.133 27.307-34.133c13.653 6.827 27.307 13.653 27.307 20.48 0 0 20.48 0 20.48-20.48 0-13.653-13.653-34.133-54.613-34.133-34.133 0-61.44 27.307-61.44 68.267zM580.267 577.707v0c0 13.653 6.827 20.48 20.48 20.48h81.92c13.653 0 20.48-6.827 20.48-13.653v0c0-13.653-6.827-20.48-20.48-20.48h-20.48v-81.92c0-13.653-6.827-20.48-20.48-20.48h-6.827c-6.827 0-13.653 6.827-13.653 20.48v81.92h-20.48c-13.653 0-20.48 6.827-20.48 13.653zM696.32 482.133v0c0 13.653 6.827 20.48 13.653 20.48h6.827c13.653 0 13.653-6.827 13.653-13.653v0c0-13.653-6.827-13.653-13.653-13.653h-6.827c-6.827-13.653-13.653-6.827-13.653 6.827zM921.6-64h-819.2c-54.613 0-102.4 47.787-102.4 102.4v819.2c0 54.613 47.787 102.4 102.4 102.4h826.027c47.787 0 95.573-47.787 95.573-102.4v-826.027c0-47.787-47.787-95.573-102.4-95.573zM102.4 878.080c-6.827 0-20.48-6.827-20.48-20.48v-826.027c0-6.827 6.827-20.48 20.48-20.48h826.027c6.827 0 20.48 6.827 20.48 20.48v826.027c0 6.827-6.827 20.48-20.48 20.48h-826.027zM791.893 284.16h-559.787c-40.96 0-81.92 34.133-81.92 81.92v348.16c0 40.96 34.133 81.92 81.92 81.92h559.787c40.96 0 81.92-34.133 81.92-81.92v-348.16c-6.827-47.787-40.96-81.92-81.92-81.92zM232.107 734.72c-13.653 0-27.307-6.827-27.307-20.48v-348.16c0-13.653 13.653-27.307 27.307-27.307h559.787c13.653 0 27.307 13.653 27.307 27.307v348.16c0 13.653-13.653 27.307-27.307 27.307h-559.787zM354.987 99.84v102.4c0 0 6.827 0 6.827 0 6.827 0 13.653-6.827 13.653-20.48v-47.787l20.48 27.307c6.827 6.827 6.827 6.827 13.653 6.827s13.653-6.827 13.653-6.827l-27.307-34.133 27.307-34.133c0 0-6.827-6.827-13.653-6.827s-6.827 0-13.653 6.827l-27.307 27.307v-27.307c0-6.827-6.827-13.653-6.827-13.653v0c0 6.827-6.827 13.653-6.827 20.48zM464.213 99.84l-27.307 88.747c0 0 6.827 6.827 13.653 6.827s13.653 0 13.653-13.653l13.653-61.44 13.653 54.613c0 6.827 6.827 6.827 13.653 6.827s13.653-6.827 13.653-6.827l13.653-54.613 13.653 61.44c0 6.827 6.827 13.653 13.653 13.653s13.653-6.827 13.653-6.827l-27.307-88.747c0-6.827-6.827-6.827-13.653-6.827s-13.653 0-13.653 6.827l-13.653 54.613-20.48-54.613c0-6.827-6.827-6.827-13.653-6.827 0-6.827-6.827 0-6.827 6.827zM614.4 154.453c6.827 6.827 13.653 13.653 27.307 13.653 20.48 0 27.307-13.653 27.307-34.133v-40.96c0-6.827-6.827-13.653-6.827-13.653v0c-6.827 0-13.653 0-13.653 13.653v34.133c0 13.653-6.827 20.48-13.653 20.48-13.653 0-20.48-6.827-20.48-13.653v-34.133c0-6.827-6.827-13.653-6.827-13.653v0c-6.827 0-13.653 0-13.653 13.653v102.4c0 0 6.827 0 6.827 0 6.827 0 13.653-6.827 13.653-20.48v-27.307z" />
<glyph unicode="&#xe91f;" glyph-name="meter_est" d="M921.6-64h-819.2c-54.613 0-102.4 47.787-102.4 102.4v819.2c0 54.613 47.787 102.4 102.4 102.4h826.027c47.787 0 95.573-47.787 95.573-102.4v-826.027c0-47.787-47.787-95.573-102.4-95.573zM102.4 878.080c-6.827 0-20.48-6.827-20.48-20.48v-826.027c0-6.827 6.827-20.48 20.48-20.48h826.027c6.827 0 20.48 6.827 20.48 20.48v826.027c0 6.827-6.827 20.48-20.48 20.48h-826.027zM791.893 284.16h-559.787c-40.96 0-81.92 34.133-81.92 81.92v348.16c0 40.96 34.133 81.92 81.92 81.92h559.787c40.96 0 81.92-34.133 81.92-81.92v-348.16c-6.827-47.787-40.96-81.92-81.92-81.92zM232.107 734.72c-13.653 0-27.307-6.827-27.307-20.48v-348.16c0-13.653 13.653-27.307 27.307-27.307h559.787c13.653 0 27.307 13.653 27.307 27.307v348.16c0 13.653-13.653 27.307-27.307 27.307h-559.787zM354.987 99.84v102.4c0 0 6.827 0 6.827 0 6.827 0 13.653-6.827 13.653-20.48v-47.787l20.48 27.307c6.827 6.827 6.827 6.827 13.653 6.827s13.653-6.827 13.653-6.827l-27.307-34.133 27.307-34.133c0 0-6.827-6.827-13.653-6.827s-6.827 0-13.653 6.827l-27.307 27.307v-27.307c0-6.827-6.827-13.653-6.827-13.653v0c0 6.827-6.827 13.653-6.827 20.48zM464.213 99.84l-27.307 88.747c0 0 6.827 6.827 13.653 6.827s13.653 0 13.653-13.653l13.653-61.44 13.653 54.613c0 6.827 6.827 6.827 13.653 6.827s13.653-6.827 13.653-6.827l13.653-54.613 13.653 61.44c0 6.827 6.827 13.653 13.653 13.653s13.653-6.827 13.653-6.827l-27.307-88.747c0-6.827-6.827-6.827-13.653-6.827s-13.653 0-13.653 6.827l-13.653 54.613-20.48-54.613c0-6.827-6.827-6.827-13.653-6.827 0-6.827-6.827 0-6.827 6.827zM614.4 154.453c6.827 6.827 13.653 13.653 27.307 13.653 20.48 0 27.307-13.653 27.307-34.133v-40.96c0-6.827-6.827-13.653-6.827-13.653v0c-6.827 0-13.653 0-13.653 13.653v34.133c0 13.653-6.827 20.48-13.653 20.48-13.653 0-20.48-6.827-20.48-13.653v-34.133c0-6.827-6.827-13.653-6.827-13.653v0c-6.827 0-13.653 0-13.653 13.653v102.4c0 0 6.827 0 6.827 0 6.827 0 13.653-6.827 13.653-20.48v-27.307zM327.68 488.96v88.747c0 13.653 6.827 20.48 20.48 20.48h68.267c13.653 0 20.48-6.827 20.48-20.48v0c0-13.653-6.827-20.48-20.48-20.48h-47.787v-6.827h34.133c13.653 0 20.48-6.827 20.48-13.653v0c0-13.653-6.827-13.653-20.48-13.653h-34.133v-13.653h54.613c13.653 0 20.48-6.827 20.48-13.653v0c0-13.653-6.827-20.48-20.48-20.48h-68.267c-20.48-6.827-27.307 0-27.307 13.653zM450.56 488.96c0 6.827 13.653 20.48 13.653 20.48 6.827-6.827 27.307-13.653 40.96-13.653s20.48 6.827 20.48 13.653c0 6.827-13.653 6.827-20.48 13.653-34.133 0-54.613 6.827-54.613 34.133s20.48 40.96 54.613 40.96c34.133 0 47.787-13.653 47.787-27.307s-13.653-20.48-13.653-20.48c-6.827 13.653-20.48 20.48-34.133 20.48s-20.48-6.827-20.48-13.653c6.827-6.827 13.653-6.827 27.307-6.827 27.307-6.827 47.787-13.653 47.787-40.96s-20.48-47.787-61.44-47.787c-34.133 0-47.787 13.653-47.787 27.307zM566.613 577.707v0c0 13.653 6.827 20.48 20.48 20.48h81.92c13.653 0 20.48-6.827 20.48-13.653v0c0-13.653-6.827-20.48-20.48-20.48h-20.48v-81.92c0-13.653-6.827-20.48-20.48-20.48h-6.827c-6.827 0-13.653 6.827-13.653 20.48v81.92h-20.48c-13.653 0-20.48 6.827-20.48 13.653zM682.667 482.133v0c0 13.653 6.827 20.48 13.653 20.48h6.827c13.653 0 13.653-6.827 13.653-13.653v0c0-13.653-6.827-13.653-13.653-13.653h-6.827c-6.827-13.653-13.653-6.827-13.653 6.827z" />
<glyph unicode="&#xe920;" glyph-name="moon" horiz-adv-x="932" d="M516.613 960c64.577-83.027 110.703-193.73 110.703-313.658 0-285.982-230.631-516.613-516.613-516.613-36.901 0-73.802 0-110.703 9.225 92.252-119.928 239.856-202.955 415.135-202.955 285.982 0 516.613 230.631 516.613 516.613 0 249.081-175.279 461.261-415.135 507.387z" />
<glyph unicode="&#xe921;" glyph-name="my_account" d="M512 960c-279.893 0-512-232.107-512-512s232.107-512 512-512c279.893 0 512 232.107 512 512s-232.107 512-512 512zM286.72 79.36v150.187c0 47.787 34.133 81.92 81.92 81.92h279.893c47.787 0 81.92-34.133 81.92-81.92v-150.187c-68.267-40.96-143.36-61.44-225.28-61.44s-150.187 20.48-218.453 61.44zM798.72 133.973v102.4c0 81.92-68.267 150.187-150.187 150.187h-279.893c-81.92 0-150.187-68.267-150.187-150.187v-102.4c-81.92 75.093-136.533 191.147-136.533 314.027 0 238.933 191.147 430.080 430.080 430.080s430.080-191.147 430.080-430.080c0-122.88-54.613-238.933-143.36-314.027zM512 789.333c-102.4 0-184.32-81.92-184.32-184.32s81.92-184.32 184.32-184.32c102.4 0 184.32 81.92 184.32 184.32s-81.92 184.32-184.32 184.32zM512 488.96c-61.44 0-116.053 54.613-116.053 116.053s54.613 116.053 116.053 116.053c61.44 0 116.053-54.613 116.053-116.053s-54.613-116.053-116.053-116.053z" />
<glyph unicode="&#xe922;" glyph-name="pin" d="M512-64c-279.893 0-512 232.107-512 512s232.107 512 512 512 512-232.107 512-512-232.107-512-512-512zM512 878.080c-238.933 0-430.080-191.147-430.080-430.080s191.147-430.080 430.080-430.080c238.933 0 430.080 191.147 430.080 430.080s-191.147 430.080-430.080 430.080zM512 707.413c-95.573 0-177.493-81.92-177.493-177.493s177.493-334.507 177.493-334.507 177.493 238.933 177.493 334.507c0 95.573-81.92 177.493-177.493 177.493zM512 434.347c-47.787 0-88.747 40.96-88.747 88.747 0 54.613 40.96 95.573 88.747 95.573s88.747-40.96 88.747-88.747c0-54.613-40.96-95.573-88.747-95.573z" />
<glyph unicode="&#xe923;" glyph-name="pound" d="M512-64c-279.893 0-512 232.107-512 512s232.107 512 512 512 512-232.107 512-512-232.107-512-512-512zM512 878.080c-238.933 0-430.080-191.147-430.080-430.080s191.147-430.080 430.080-430.080c238.933 0 430.080 191.147 430.080 430.080s-191.147 430.080-430.080 430.080zM293.547 448v6.827c0 20.48 13.653 34.133 40.96 34.133h47.787l13.653 81.92c13.653 102.4 75.093 157.013 170.667 157.013s143.36-47.787 143.36-102.4c0-61.44-61.44-54.613-61.44-54.613-6.827 40.96-34.133 68.267-75.093 68.267-47.787 0-68.267-20.48-75.093-75.093l-20.48-75.093h102.4c20.48 0 40.96-13.653 40.96-34.133v-6.827c0-20.48-13.653-34.133-40.96-34.133h-116.053l-20.48-109.227h211.627c34.133 0 47.787-13.653 47.787-40.96v-6.827c0-27.307-13.653-40.96-47.787-40.96h-327.68c-34.133 0-47.787 13.653-47.787 40.96v6.827c0 27.307 13.653 40.96 47.787 40.96h20.48l20.48 102.4h-34.133c-27.307 0-40.96 13.653-40.96 40.96z" />
<glyph unicode="&#xe924;" glyph-name="question" d="M512-64c-279.893 0-512 232.107-512 512s232.107 512 512 512c279.893 0 512-232.107 512-512s-232.107-512-512-512zM512 878.080c-238.933 0-430.080-191.147-430.080-430.080s191.147-430.080 430.080-430.080c238.933 0 430.080 191.147 430.080 430.080s-191.147 430.080-430.080 430.080zM457.387 372.907c0 129.707 136.533 109.227 136.533 177.493 0 34.133-27.307 54.613-75.093 54.613-68.267 0-95.573-47.787-102.4-88.747 0 0-75.093-6.827-75.093 54.613 0 54.613 61.44 122.88 177.493 122.88 109.227 0 177.493-54.613 177.493-136.533 0-129.707-143.36-109.227-150.187-197.973 0-20.48-13.653-27.307-40.96-27.307s-47.787 13.653-47.787 40.96zM443.733 229.547v13.653c0 34.133 13.653 54.613 47.787 54.613h13.653c34.133 0 54.613-20.48 54.613-54.613v-13.653c0-34.133-20.48-47.787-54.613-47.787h-6.827c-34.133-6.827-54.613 13.653-54.613 47.787z" />
<glyph unicode="&#xe925;" glyph-name="search" d="M512 960c-279.893 0-512-232.107-512-512s232.107-512 512-512c279.893 0 512 232.107 512 512s-232.107 512-512 512zM512 17.92c-238.933 0-430.080 191.147-430.080 430.080s191.147 430.080 430.080 430.080c238.933 0 430.080-191.147 430.080-430.080s-191.147-430.080-430.080-430.080zM641.707 352.427c-6.827 13.653-27.307 13.653-40.96 13.653l-40.96 40.96c27.307 34.133 47.787 75.093 47.787 122.88s-20.48 95.573-54.613 129.707c-34.133 34.133-81.92 54.613-129.707 54.613-102.4 0-184.32-81.92-184.32-184.32s81.92-184.32 184.32-184.32v0c34.133 0 68.267 13.653 102.4 27.307l47.787-47.787c-6.827-13.653 0-27.307 13.653-40.96l116.053-116.053c6.827-6.827 20.48-13.653 27.307-13.653 13.653 0 20.48 6.827 27.307 13.653 13.653 13.653 13.653 40.96 0 54.613l-116.053 129.707zM423.253 413.867v0c-68.267 0-122.88 54.613-122.88 122.88s54.613 122.88 122.88 122.88c34.133 0 61.44-13.653 81.92-34.133 27.307-27.307 40.96-61.44 40.96-88.747 0-68.267-54.613-122.88-122.88-122.88z" />
<glyph unicode="&#xe926;" glyph-name="speech" d="M512-64c-279.893 0-512 232.107-512 512s232.107 512 512 512 512-232.107 512-512-232.107-512-512-512zM512 878.080c-238.933 0-430.080-191.147-430.080-430.080s191.147-430.080 430.080-430.080c238.933 0 430.080 191.147 430.080 430.080s-191.147 430.080-430.080 430.080zM512 222.72c-122.88 0-225.28 102.4-225.28 225.28s102.4 225.28 225.28 225.28c122.88 0 225.28-102.4 225.28-225.28 0-34.133-6.827-75.093-27.307-109.227l40.96-88.747c0-13.653 0-20.48-6.827-27.307-13.653-13.653-20.48-13.653-34.133-13.653l-88.747 34.133c-34.133-13.653-68.267-20.48-109.227-20.48zM512 611.84c-88.747 0-163.84-75.093-163.84-163.84s75.093-163.84 163.84-163.84c27.307 0 61.44 6.827 88.747 27.307 6.827 6.827 13.653 6.827 20.48 6.827l47.787-27.307-20.48 47.787c0 6.827 0 20.48 6.827 27.307 13.653 27.307 20.48 54.613 20.48 81.92 0 88.747-75.093 163.84-163.84 163.84z" />
<glyph unicode="&#xe927;" glyph-name="sun" d="M512 707.413c-143.36 0-259.413-116.053-259.413-259.413s116.053-259.413 259.413-259.413c143.36 0 259.413 116.053 259.413 259.413s-116.053 259.413-259.413 259.413v0zM512 782.507c-27.307 0-47.787 20.48-47.787 47.787v81.92c0 27.307 20.48 47.787 47.787 47.787s47.787-20.48 47.787-47.787v-81.92c0-27.307-20.48-47.787-47.787-47.787v0zM512 113.493c-27.307 0-47.787-20.48-47.787-47.787v-81.92c0-27.307 20.48-47.787 47.787-47.787s47.787 20.48 47.787 47.787v81.92c0 27.307-20.48 47.787-47.787 47.787v0zM744.107 680.107c-20.48 20.48-20.48 54.613 0 68.267l54.613 54.613c20.48 20.48 54.613 20.48 68.267 0 20.48-20.48 20.48-54.613 0-68.267l-47.787-54.613c-20.48-13.653-54.613-13.653-75.093 0v0zM279.893 215.893c-20.48 20.48-54.613 20.48-68.267 0l-54.613-54.613c-20.48-20.48-20.48-54.613 0-68.267 20.48-20.48 54.613-20.48 68.267 0l54.613 47.787c13.653 20.48 13.653 54.613 0 75.093v0zM846.507 448c0 27.307 20.48 47.787 47.787 47.787h81.92c27.307 0 47.787-20.48 47.787-47.787s-20.48-47.787-47.787-47.787h-81.92c-27.307 0-47.787 20.48-47.787 47.787v0zM177.493 448c0 27.307-20.48 47.787-47.787 47.787h-81.92c-27.307 0-47.787-20.48-47.787-47.787s20.48-47.787 47.787-47.787h81.92c27.307 0 47.787 20.48 47.787 47.787v0zM744.107 215.893c20.48 20.48 47.787 20.48 68.267 0l54.613-54.613c20.48-20.48 20.48-54.613 0-68.267-20.48-20.48-47.787-20.48-68.267 0l-54.613 47.787c-13.653 20.48-13.653 54.613 0 75.093v0zM279.893 680.107c20.48 20.48 20.48 54.613 0 68.267l-61.44 61.44c-20.48 20.48-54.613 20.48-68.267 0-20.48-20.48-20.48-47.787 0-68.267l54.613-61.44c20.48-13.653 54.613-13.653 75.093 0v0z" />
<glyph unicode="&#xe928;" glyph-name="tariff" d="M512 960c-138.159 0-268.19-56.889-365.714-146.286-89.397-97.524-146.286-227.556-146.286-365.714 0-284.444 227.556-512 512-512 81.27 0 162.54 24.381 235.683 56.889l-73.143 73.143c-48.762-24.381-105.651-32.508-162.54-32.508-227.556 0-414.476 186.921-414.476 414.476 0 113.778 40.635 211.302 121.905 292.571s178.794 121.905 292.571 121.905c227.556 0 414.476-186.921 414.476-414.476 0-56.889-8.127-113.778-32.508-162.54l73.143-73.143c32.508 73.143 56.889 146.286 56.889 235.683 0 284.444-227.556 512-512 512zM690.794 659.302h-349.46c-8.127 0-16.254 0-24.381-8.127s-8.127-16.254-8.127-32.508v-349.46c16.254-32.508 65.016-40.635 97.524-8.127v0c0 0 0 0 0 0 16.254 16.254 24.381 48.762 24.381 73.143l-16.254 138.159 349.46-349.46 24.381-32.508 40.635-40.635c32.508 24.381 56.889 56.889 89.397 89.397l-40.635 40.635-32.508 24.381-357.587 341.333 138.159-16.254c24.381-8.127 48.762 0 73.143 16.254 32.508 40.635 24.381 89.397-8.127 113.778z" />
<glyph unicode="&#xe929;" glyph-name="tick" d="M512 960c-279.893 0-512-232.107-512-512s232.107-512 512-512 512 232.107 512 512-232.107 512-512 512zM512 17.92c-238.933 0-430.080 191.147-430.080 430.080s191.147 430.080 430.080 430.080c238.933 0 430.080-191.147 430.080-430.080s-191.147-430.080-430.080-430.080zM669.013 693.76l-204.8-409.6-81.92 109.227c-20.48 27.307-40.96 34.133-54.613 34.133-34.133 0-61.44-34.133-61.44-47.787l197.973-218.453h13.653l286.72 491.52c34.133 54.613-61.44 102.4-95.573 40.96z" />
<glyph unicode="&#xe92a;" glyph-name="variable" d="M921.6-64h-819.2c-54.613 0-102.4 47.787-102.4 102.4v819.2c0 54.613 47.787 102.4 102.4 102.4h826.027c47.787 0 95.573-47.787 95.573-102.4v-826.027c0-47.787-47.787-95.573-102.4-95.573zM102.4 878.080c-6.827 0-20.48-6.827-20.48-20.48v-826.027c0-6.827 6.827-20.48 20.48-20.48h826.027c6.827 0 20.48 6.827 20.48 20.48v826.027c0 6.827-6.827 20.48-20.48 20.48h-826.027zM791.893 284.16h-559.787c-40.96 0-81.92 34.133-81.92 81.92v348.16c0 40.96 34.133 81.92 81.92 81.92h559.787c40.96 0 81.92-34.133 81.92-81.92v-348.16c-6.827-47.787-40.96-81.92-81.92-81.92zM232.107 734.72c-13.653 0-27.307-6.827-27.307-20.48v-348.16c0-13.653 13.653-27.307 27.307-27.307h559.787c13.653 0 27.307 13.653 27.307 27.307v348.16c0 13.653-13.653 27.307-27.307 27.307h-559.787zM354.987 99.84v102.4c0 0 6.827 0 6.827 0 6.827 0 13.653-6.827 13.653-20.48v-47.787l20.48 27.307c6.827 6.827 6.827 6.827 13.653 6.827s13.653-6.827 13.653-6.827l-27.307-34.133 27.307-34.133c0 0-6.827-6.827-13.653-6.827s-6.827 0-13.653 6.827l-27.307 27.307v-27.307c0-6.827-6.827-13.653-6.827-13.653v0c0 6.827-6.827 13.653-6.827 20.48zM464.213 99.84l-27.307 88.747c0 0 6.827 6.827 13.653 6.827s13.653 0 13.653-13.653l13.653-61.44 13.653 54.613c0 6.827 6.827 6.827 13.653 6.827s13.653-6.827 13.653-6.827l13.653-54.613 13.653 61.44c0 6.827 6.827 13.653 13.653 13.653s13.653-6.827 13.653-6.827l-27.307-88.747c0-6.827-6.827-6.827-13.653-6.827s-13.653 0-13.653 6.827l-13.653 54.613-20.48-54.613c0-6.827-6.827-6.827-13.653-6.827 0-6.827-6.827 0-6.827 6.827zM614.4 154.453c6.827 6.827 13.653 13.653 27.307 13.653 20.48 0 27.307-13.653 27.307-34.133v-40.96c0-6.827-6.827-13.653-6.827-13.653v0c-6.827 0-13.653 0-13.653 13.653v34.133c0 13.653-6.827 20.48-13.653 20.48-13.653 0-20.48-6.827-20.48-13.653v-34.133c0-6.827-6.827-13.653-6.827-13.653v0c-6.827 0-13.653 0-13.653 13.653v102.4c0 0 6.827 0 6.827 0 6.827 0 13.653-6.827 13.653-20.48v-27.307zM689.493 379.733c-13.653 0-20.48 6.827-27.307 13.653l-109.227 204.8-116.053-204.8c0-6.827-13.653-13.653-20.48-13.653-13.653 0-20.48 6.827-27.307 13.653l-81.92 129.707c-6.827 13.653-6.827 34.133 13.653 40.96 13.653 6.827 34.133 6.827 40.96-6.827l47.787-88.747 116.053 211.627c6.827 6.827 20.48 13.653 34.133 13.653s20.48-6.827 27.307-13.653l136.533-252.587c6.827-13.653 0-34.133-13.653-40.96-6.827-6.827-13.653-6.827-20.48-6.827z" />
<glyph unicode="&#xe92b;" glyph-name="pie_slice" horiz-adv-x="967" d="M853.333 553.651c16.254-40.635 24.381-81.27 24.381-130.032 0-211.302-170.667-390.095-390.095-390.095s-390.095 178.794-390.095 390.095c0 211.302 170.667 390.095 390.095 390.095 8.127 0 8.127 0 16.254 0l24.381 97.524c-16.254 0-24.381 0-40.635 0-268.19 0-487.619-219.429-487.619-487.619s219.429-487.619 487.619-487.619 487.619 219.429 487.619 487.619c0 65.016-16.254 121.905-32.508 178.794l-89.397-48.762zM463.238 423.619l487.619 276.317c-81.27 130.032-203.175 219.429-341.333 260.063l-146.286-536.381z" />
<glyph unicode="&#xe92c;" glyph-name="edit2" d="M320.853 263.68c0 6.827 0 6.827 0 0l27.307 109.227 88.747-88.747-116.053-20.48c6.827 0 0 0 0 0zM477.867 331.947l238.933 238.933c6.827 6.827 6.827 13.653 0 20.48l-68.267 68.267c-6.827 6.827-13.653 6.827-20.48 0l-238.933-238.933 88.747-88.747z" />
<glyph unicode="&#xe92d;" glyph-name="calendar" d="M307.2 202.24c0-22.622-18.338-40.96-40.96-40.96s-40.96 18.338-40.96 40.96c0 22.622 18.338 40.96 40.96 40.96s40.96-18.338 40.96-40.96zM471.040 202.24c0-22.622-18.338-40.96-40.96-40.96s-40.96 18.338-40.96 40.96c0 22.622 18.338 40.96 40.96 40.96s40.96-18.338 40.96-40.96zM634.88 202.24c0-22.622-18.338-40.96-40.96-40.96s-40.96 18.338-40.96 40.96c0 22.622 18.338 40.96 40.96 40.96s40.96-18.338 40.96-40.96zM307.2 366.080c0-22.622-18.338-40.96-40.96-40.96s-40.96 18.338-40.96 40.96c0 22.622 18.338 40.96 40.96 40.96s40.96-18.338 40.96-40.96zM471.040 366.080c0-22.622-18.338-40.96-40.96-40.96s-40.96 18.338-40.96 40.96c0 22.622 18.338 40.96 40.96 40.96s40.96-18.338 40.96-40.96zM634.88 366.080c0-22.622-18.338-40.96-40.96-40.96s-40.96 18.338-40.96 40.96c0 22.622 18.338 40.96 40.96 40.96s40.96-18.338 40.96-40.96zM798.72 366.080c0-22.622-18.338-40.96-40.96-40.96s-40.96 18.338-40.96 40.96c0 22.622 18.338 40.96 40.96 40.96s40.96-18.338 40.96-40.96zM307.2 529.92c0-22.622-18.338-40.96-40.96-40.96s-40.96 18.338-40.96 40.96c0 22.622 18.338 40.96 40.96 40.96s40.96-18.338 40.96-40.96zM471.040 529.92c0-22.622-18.338-40.96-40.96-40.96s-40.96 18.338-40.96 40.96c0 22.622 18.338 40.96 40.96 40.96s40.96-18.338 40.96-40.96zM634.88 529.92c0-22.622-18.338-40.96-40.96-40.96s-40.96 18.338-40.96 40.96c0 22.622 18.338 40.96 40.96 40.96s40.96-18.338 40.96-40.96zM798.72 529.92c0-22.622-18.338-40.96-40.96-40.96s-40.96 18.338-40.96 40.96c0 22.622 18.338 40.96 40.96 40.96s40.96-18.338 40.96-40.96zM327.68 714.24c-20.48 0-40.96 20.48-40.96 40.96v163.84c0 20.48 20.48 40.96 40.96 40.96s40.96-20.48 40.96-40.96v-163.84c0-20.48-20.48-40.96-40.96-40.96zM696.32 714.24c-20.48 0-40.96 20.48-40.96 40.96v163.84c0 20.48 20.48 40.96 40.96 40.96s40.96-20.48 40.96-40.96v-163.84c0-20.48-20.48-40.96-40.96-40.96zM450.56 878.080h122.88v-81.92h-122.88v81.92zM819.2 878.080v0-81.92c68.267 0 122.88-54.613 122.88-122.88v-532.48c0-68.267-54.613-122.88-122.88-122.88h-614.4c-68.267 0-122.88 54.613-122.88 122.88v532.48c0 68.267 54.613 122.88 122.88 122.88v0 81.92c-109.227 0-204.8-88.747-204.8-204.8v-532.48c0-116.053 95.573-204.8 204.8-204.8h614.4c109.227 0 204.8 88.747 204.8 204.8v532.48c0 116.053-95.573 204.8-204.8 204.8z" />
<glyph unicode="&#xe92e;" glyph-name="clock" d="M512-64c-279.893 0-512 232.107-512 512s232.107 512 512 512 512-232.107 512-512-232.107-512-512-512zM512 878.080c-238.933 0-430.080-191.147-430.080-430.080s191.147-430.080 430.080-430.080c238.933 0 430.080 191.147 430.080 430.080s-191.147 430.080-430.080 430.080zM689.493 161.28c-13.653 0-27.307 6.827-34.133 13.653l-177.493 184.32c-13.653 6.827-20.48 20.48-20.48 34.133v348.16c0 27.307 20.48 54.613 54.613 54.613 27.307 0 54.613-20.48 54.613-54.613v-327.68l163.84-163.84c20.48-20.48 20.48-54.613 0-75.093-13.653-6.827-27.307-13.653-40.96-13.653z" />
<glyph unicode="&#xe92f;" glyph-name="edit" d="M150.187 86.187c-197.973 197.973-197.973 525.653 0 723.627s525.653 197.973 723.627 0c197.973-197.973 197.973-525.653 0-723.627s-525.653-197.973-723.627 0zM819.2 755.2c-170.667 163.84-443.733 163.84-614.4 0-163.84-170.667-163.84-443.733 0-614.4 170.667-170.667 443.733-170.667 607.573 0 170.667 170.667 170.667 443.733 6.827 614.4zM320.853 263.68c0 6.827 0 6.827 0 0l27.307 109.227 88.747-88.747-116.053-20.48c6.827 0 0 0 0 0zM477.867 331.947l238.933 238.933c6.827 6.827 6.827 13.653 0 20.48l-68.267 68.267c-6.827 6.827-13.653 6.827-20.48 0l-238.933-238.933 88.747-88.747z" />
<glyph unicode="&#xe930;" glyph-name="paperclip" d="M655.36 652.8v-348.16c0-81.92-68.267-143.36-143.36-143.36-81.92 0-143.36 68.267-143.36 143.36v341.333c0 61.44 47.787 109.227 102.4 109.227 61.44 0 109.227-47.787 109.227-109.227v-259.413c0-40.96-34.133-68.267-68.267-68.267-40.96 0-68.267 34.133-68.267 68.267v197.973h47.787v-197.973c0-13.653 6.827-20.48 20.48-20.48s20.48 6.827 20.48 20.48v259.413c0 34.133-27.307 54.613-54.613 54.613-34.133 0-54.613-27.307-54.613-54.613v-341.333c0-54.613 40.96-95.573 95.573-95.573s95.573 40.96 95.573 95.573v348.16h40.96zM512 878.080c-238.933 0-430.080-191.147-430.080-430.080s191.147-430.080 430.080-430.080 430.080 191.147 430.080 430.080c0 238.933-191.147 430.080-430.080 430.080zM512-64c-279.893 0-512 232.107-512 512s232.107 512 512 512 512-232.107 512-512c0-279.893-232.107-512-512-512z" />
<glyph unicode="&#xe931;" glyph-name="phone" d="M771.413 222.72c13.653 20.48 20.48 40.96 20.48 54.613-13.653 54.613-109.227 143.36-163.84 136.533-27.307-6.827-61.44-20.48-81.92-40.96l-102.4 122.88c20.48 20.48 40.96 47.787 47.787 75.093 13.653 54.613-61.44 157.013-109.227 177.493-6.827 6.827-13.653 6.827-20.48 6.827-54.613 0-129.707-88.747-129.707-136.533-6.827-54.613 34.133-157.013 136.533-286.72 109.227-122.88 204.8-170.667 259.413-177.493 0 0 6.827 0 6.827 0 20.48 0 40.96 6.827 61.44 20.48l13.653-20.48c6.827-6.827 13.653-13.653 27.307-13.653 6.827 0 13.653 0 20.48 6.827 13.653 6.827 20.48 27.307 6.827 40.96l-13.653 13.653c6.827 6.827 13.653 13.653 20.48 20.48zM634.88 352.427c27.307 0 81.92-54.613 88.747-81.92 0-6.827-13.653-13.653-20.48-27.307l-81.92 102.4c6.827 6.827 13.653 6.827 13.653 6.827zM430.080 591.36c0-6.827-6.827-13.653-6.827-20.48l-88.747 102.4c13.653 13.653 20.48 20.48 27.307 20.48 27.307-13.653 75.093-81.92 68.267-102.4zM634.88 215.893c-34.133 0-116.053 40.96-218.453 157.013s-122.88 204.8-122.88 238.933c0 6.827 6.827 20.48 13.653 27.307l88.747-102.4c-6.827 0-13.653-6.827-13.653-13.653-13.653-13.653-13.653-27.307-6.827-40.96l143.36-163.84c6.827-6.827 13.653-6.827 20.48-13.653 6.827 0 13.653 0 20.48 6.827s13.653 6.827 20.48 13.653l88.747-102.4c-13.653-6.827-20.48-6.827-34.133-6.827v0zM512 960c-279.893 0-512-232.107-512-512s232.107-512 512-512 512 232.107 512 512-232.107 512-512 512zM512 17.92c-238.933 0-430.080 191.147-430.080 430.080s191.147 430.080 430.080 430.080c238.933 0 430.080-191.147 430.080-430.080s-191.147-430.080-430.080-430.080z" />
<glyph unicode="&#xe932;" glyph-name="play" d="M512-64c-279.893 0-512 232.107-512 512s232.107 512 512 512 512-232.107 512-512-232.107-512-512-512zM512 878.080c-238.933 0-430.080-191.147-430.080-430.080s191.147-430.080 430.080-430.080c238.933 0 430.080 191.147 430.080 430.080s-191.147 430.080-430.080 430.080zM744.107 468.48c20.48-6.827 20.48-27.307 0-34.133l-375.467-191.147c-20.48-6.827-34.133 0-34.133 20.48v368.64c0 20.48 13.653 34.133 34.133 20.48l375.467-184.32z" />
<glyph unicode="&#xe933;" glyph-name="cross22" d="M389.12 304.64v0c-20.48 20.48-20.48 40.96 0 68.267l68.267 68.267-68.267 68.267c-20.48 20.48-20.48 40.96-6.827 61.44l6.827 6.827c13.653 13.653 34.133 20.48 61.44-6.827l68.267-68.267 68.267 68.267c27.307 20.48 47.787 20.48 61.44 6.827l6.827-6.827c13.653-13.653 20.48-34.133-6.827-61.44l-68.267-68.267 75.093-75.093c20.48-20.48 20.48-40.96 0-54.613l-6.827-6.827c-13.653-20.48-34.133-20.48-54.613 0l-75.093 75.093-68.267-68.267c-27.307-20.48-47.787-20.48-61.44-6.827z" />
<glyph unicode="&#xe934;" glyph-name="tick2" d="M669.013 693.76l-204.8-409.6-81.92 109.227c-20.48 27.307-40.96 34.133-54.613 34.133-34.133 0-61.44-34.133-61.44-47.787l197.973-218.453h13.653l286.72 491.52c34.133 54.613-61.44 102.4-95.573 40.96z" />
<glyph unicode="&#xe935;" glyph-name="chevron-down" d="M0 620.8l512-492.8 512 492.8-96 83.2-416-390.4-416 390.4-96-83.2z" />
<glyph unicode="&#xe936;" glyph-name="chevron-left" d="M684.8 960l-492.8-512 492.8-512 83.2 96-390.4 416 390.4 416-83.2 96z" />
<glyph unicode="&#xe937;" glyph-name="chevron-right" d="M320 864l390.4-416-390.4-416 83.2-96 492.8 512-492.8 512-83.2-96z" />
<glyph unicode="&#xe938;" glyph-name="chevron-up" d="M96 128l416 390.4 416-390.4 96 83.2-512 492.8-512-492.8 96-83.2z" />
<glyph unicode="&#xf02e;" glyph-name="search2" horiz-adv-x="973" d="M960 128l-249.125 249.125c35.563 58.063 57.125 125.719 57.125 198.875 0 212.031-172 384-384 384-212.031 0-384-171.969-384-384 0-212 171.969-384 384-384 73.156 0 140.812 21.562 198.875 57l249.125-249c17.5-17.5 46.5-17.375 64 0l64 64c17.5 17.5 17.5 46.5 0 64zM384 320c-141.375 0-256 114.625-256 256s114.625 256 256 256 256-114.625 256-256-114.625-256-256-256z" />
<glyph unicode="&#xf05e;" glyph-name="three-bars" horiz-adv-x="768" d="M0 768v-128h768v128h-768zM0 384h768v128h-768v-128zM0 128h768v128h-768v-128z" />
</font>
</defs>
</svg>
